<svg width="22" height="17" viewBox="0 0 22 17" fill="none" xmlns="http://www.w3.org/2000/svg">
<path id="Vector" d="M22 2.01238C21.1724 2.35565 20.2972 2.58379 19.4012 2.68977C20.3454 2.15705 21.0514 1.3135 21.3854 0.318905C20.5013 0.81758 19.534 1.16875 18.5254 1.35722C17.907 0.729235 17.1043 0.292645 16.2215 0.104174C15.3388 -0.0842979 14.4169 -0.0159396 13.5756 0.300368C12.7343 0.616675 12.0124 1.16631 11.5038 1.87786C10.9952 2.58942 10.7234 3.43 10.7236 4.29039C10.7236 4.63039 10.7539 4.95732 10.8281 5.26855C9.03386 5.18489 7.27837 4.742 5.67641 3.96885C4.07446 3.1957 2.66213 2.10969 1.53175 0.781832C0.952626 1.72581 0.773587 2.84422 1.03109 3.90933C1.28859 4.97445 1.96327 5.90617 2.91775 6.51479C2.20379 6.49658 1.5049 6.31539 0.88 5.98648V6.03356C0.881196 7.02405 1.24116 7.98391 1.89931 8.75156C2.55746 9.51921 3.47359 10.0478 4.4935 10.2483C4.10766 10.345 3.71001 10.3925 3.311 10.3895C3.02443 10.3944 2.73816 10.3698 2.45712 10.3163C2.74854 11.1676 3.3103 11.9121 4.06504 12.4472C4.81978 12.9824 5.7304 13.2818 6.6715 13.3044C5.07504 14.4918 3.10609 15.136 1.07938 15.1338C0.7095 15.1338 0.35475 15.1182 0 15.075C2.06234 16.3389 4.46555 17.0075 6.919 16.9999C15.2185 16.9999 19.756 10.4614 19.756 4.79386C19.756 4.60424 19.7491 4.42116 19.7395 4.23939C20.6291 3.63391 21.3951 2.87923 22 2.01238Z" fill="white"/>
</svg>
